<svg xmlns="http://www.w3.org/2000/svg" width="1200" height="190" viewBox="0 0 1200 190" role="img"><title>Diffusion models — DDPM / DDIM &amp; process length</title><defs><linearGradient id="silver" x1="0" y1="0" x2="1" y2="1"><stop stop-color="#eeeeec"/><stop offset=".45" stop-color="#62666f"/><stop offset=".75" stop-color="#c6c8cd"/><stop offset="1" stop-color="#242832"/></linearGradient><radialGradient id="halo"><stop stop-color="#353a44" stop-opacity=".4"/><stop offset="1" stop-color="#101217" stop-opacity="0"/></radialGradient></defs><rect width="1200" height="190" fill="#0d0f12"/><path d="M90 25L90 165" stroke="#303238" stroke-width="1" fill="none"/><path d="M893 0L893 190" stroke="#303238" stroke-width="1" fill="none"/><g fill="#ff865f" transform="translate(28 49)"><path d="M483 750Q483 805 521.5 845.0Q560 885 614 885Q670 885 710.0 845.0Q750 805 750 750Q750 694 710.5 655.0Q671 616 614 616Q558 616 520.5 654.0Q483 692 483 750ZM616 1360Q475 1360 405.5 1208.0Q336 1056 336 745Q336 435 405.5 283.0Q475 131 616 131Q758 131 827.5 283.0Q897 435 897 745Q897 1056 827.5 1208.0Q758 1360 616 1360ZM616 1520Q855 1520 977.5 1324.0Q1100 1128 1100 745Q1100 363 977.5 167.0Q855 -29 616 -29Q377 -29 255.0 167.0Q133 363 133 745Q133 1128 255.0 1324.0Q377 1520 616 1520Z" transform="translate(0.00 0) scale(0.008789 -0.008789)"/><path d="M373 170H1059V0H152V170Q339 367 479.0 518.0Q619 669 672 731Q772 853 807.0 928.5Q842 1004 842 1083Q842 1208 768.5 1279.0Q695 1350 567 1350Q476 1350 376.0 1317.0Q276 1284 164 1217V1421Q267 1470 366.5 1495.0Q466 1520 563 1520Q782 1520 915.5 1403.5Q1049 1287 1049 1098Q1049 1002 1004.5 906.0Q960 810 860 694Q804 629 697.5 514.0Q591 399 373 170Z" transform="translate(10.84 0) scale(0.008789 -0.008789)"/></g><g fill="#ecebe6" transform="translate(120 72)"><path d="M573 1202V291H711Q947 291 1071.5 408.0Q1196 525 1196 748Q1196 970 1072.0 1086.0Q948 1202 711 1202ZM188 1493H594Q934 1493 1100.5 1444.5Q1267 1396 1386 1280Q1491 1179 1542.0 1047.0Q1593 915 1593 748Q1593 579 1542.0 446.5Q1491 314 1386 213Q1266 97 1098.0 48.5Q930 0 594 0H188Z" transform="translate(0.00 0) scale(0.027344 -0.027344)"/><path d="M172 1120H530V0H172ZM172 1556H530V1264H172Z" transform="translate(45.48 0) scale(0.027344 -0.027344)"/><path d="M909 1556V1321H711Q635 1321 605.0 1293.5Q575 1266 575 1198V1120H881V864H575V0H217V864H39V1120H217V1198Q217 1381 319.0 1468.5Q421 1556 635 1556Z" transform="translate(63.68 0) scale(0.027344 -0.027344)"/><path d="M909 1556V1321H711Q635 1321 605.0 1293.5Q575 1266 575 1198V1120H881V864H575V0H217V864H39V1120H217V1198Q217 1381 319.0 1468.5Q421 1556 635 1556Z" transform="translate(87.04 0) scale(0.027344 -0.027344)"/><path d="M160 436V1120H520V1008Q520 917 519.0 779.5Q518 642 518 596Q518 461 525.0 401.5Q532 342 549 315Q571 280 606.5 261.0Q642 242 688 242Q800 242 864.0 328.0Q928 414 928 567V1120H1286V0H928V162Q847 64 756.5 17.5Q666 -29 557 -29Q363 -29 261.5 90.0Q160 209 160 436Z" transform="translate(110.41 0) scale(0.027344 -0.027344)"/><path d="M1047 1085V813Q932 861 825.0 885.0Q718 909 623 909Q521 909 471.5 883.5Q422 858 422 805Q422 762 459.5 739.0Q497 716 594 705L657 696Q932 661 1027.0 581.0Q1122 501 1122 330Q1122 151 990.0 61.0Q858 -29 596 -29Q485 -29 366.5 -11.5Q248 6 123 41V313Q230 261 342.5 235.0Q455 209 571 209Q676 209 729.0 238.0Q782 267 782 324Q782 372 745.5 395.5Q709 419 600 432L537 440Q298 470 202.0 551.0Q106 632 106 797Q106 975 228.0 1061.0Q350 1147 602 1147Q701 1147 810.0 1132.0Q919 1117 1047 1085Z" transform="translate(149.27 0) scale(0.027344 -0.027344)"/><path d="M172 1120H530V0H172ZM172 1556H530V1264H172Z" transform="translate(181.61 0) scale(0.027344 -0.027344)"/><path d="M705 891Q586 891 523.5 805.5Q461 720 461 559Q461 398 523.5 312.5Q586 227 705 227Q822 227 884.0 312.5Q946 398 946 559Q946 720 884.0 805.5Q822 891 705 891ZM705 1147Q994 1147 1156.5 991.0Q1319 835 1319 559Q1319 283 1156.5 127.0Q994 -29 705 -29Q415 -29 251.5 127.0Q88 283 88 559Q88 835 251.5 991.0Q415 1147 705 1147Z" transform="translate(199.80 0) scale(0.027344 -0.027344)"/><path d="M1298 682V0H938V111V522Q938 667 931.5 722.0Q925 777 909 803Q888 838 852.0 857.5Q816 877 770 877Q658 877 594.0 790.5Q530 704 530 551V0H172V1120H530V956Q611 1054 702.0 1100.5Q793 1147 903 1147Q1097 1147 1197.5 1028.0Q1298 909 1298 682Z" transform="translate(237.27 0) scale(0.027344 -0.027344)"/><path d="M1210 934Q1278 1038 1371.5 1092.5Q1465 1147 1577 1147Q1770 1147 1871.0 1028.0Q1972 909 1972 682V0H1612V584Q1613 597 1613.5 611.0Q1614 625 1614 651Q1614 770 1579.0 823.5Q1544 877 1466 877Q1364 877 1308.5 793.0Q1253 709 1251 550V0H891V584Q891 770 859.0 823.5Q827 877 745 877Q642 877 586.0 792.5Q530 708 530 551V0H170V1120H530V956Q596 1051 681.5 1099.0Q767 1147 870 1147Q986 1147 1075.0 1091.0Q1164 1035 1210 934Z" transform="translate(294.64 0) scale(0.027344 -0.027344)"/><path d="M705 891Q586 891 523.5 805.5Q461 720 461 559Q461 398 523.5 312.5Q586 227 705 227Q822 227 884.0 312.5Q946 398 946 559Q946 720 884.0 805.5Q822 891 705 891ZM705 1147Q994 1147 1156.5 991.0Q1319 835 1319 559Q1319 283 1156.5 127.0Q994 -29 705 -29Q415 -29 251.5 127.0Q88 283 88 559Q88 835 251.5 991.0Q415 1147 705 1147Z" transform="translate(351.99 0) scale(0.027344 -0.027344)"/><path d="M934 956V1556H1294V0H934V162Q860 63 771.0 17.0Q682 -29 565 -29Q358 -29 225.0 135.5Q92 300 92 559Q92 818 225.0 982.5Q358 1147 565 1147Q681 1147 770.5 1100.5Q860 1054 934 956ZM698 231Q813 231 873.5 315.0Q934 399 934 559Q934 719 873.5 803.0Q813 887 698 887Q584 887 523.5 803.0Q463 719 463 559Q463 399 523.5 315.0Q584 231 698 231Z" transform="translate(389.46 0) scale(0.027344 -0.027344)"/><path d="M1290 563V461H453Q466 335 544.0 272.0Q622 209 762 209Q875 209 993.5 242.5Q1112 276 1237 344V68Q1110 20 983.0 -4.5Q856 -29 729 -29Q425 -29 256.5 125.5Q88 280 88 559Q88 833 253.5 990.0Q419 1147 709 1147Q973 1147 1131.5 988.0Q1290 829 1290 563ZM922 682Q922 784 862.5 846.5Q803 909 707 909Q603 909 538.0 850.5Q473 792 457 682Z" transform="translate(428.55 0) scale(0.027344 -0.027344)"/><path d="M172 1556H530V0H172Z" transform="translate(465.53 0) scale(0.027344 -0.027344)"/><path d="M1047 1085V813Q932 861 825.0 885.0Q718 909 623 909Q521 909 471.5 883.5Q422 858 422 805Q422 762 459.5 739.0Q497 716 594 705L657 696Q932 661 1027.0 581.0Q1122 501 1122 330Q1122 151 990.0 61.0Q858 -29 596 -29Q485 -29 366.5 -11.5Q248 6 123 41V313Q230 261 342.5 235.0Q455 209 571 209Q676 209 729.0 238.0Q782 267 782 324Q782 372 745.5 395.5Q709 419 600 432L537 440Q298 470 202.0 551.0Q106 632 106 797Q106 975 228.0 1061.0Q350 1147 602 1147Q701 1147 810.0 1132.0Q919 1117 1047 1085Z" transform="translate(483.72 0) scale(0.027344 -0.027344)"/></g><g fill="#a5a6aa" transform="translate(121 118)"><path d="M403 1327V166H647Q956 166 1099.5 306.0Q1243 446 1243 748Q1243 1048 1099.5 1187.5Q956 1327 647 1327ZM201 1493H616Q1050 1493 1253.0 1312.5Q1456 1132 1456 748Q1456 362 1252.0 181.0Q1048 0 616 0H201Z" transform="translate(0.00 0) scale(0.016602 -0.016602)"/><path d="M403 1327V166H647Q956 166 1099.5 306.0Q1243 446 1243 748Q1243 1048 1099.5 1187.5Q956 1327 647 1327ZM201 1493H616Q1050 1493 1253.0 1312.5Q1456 1132 1456 748Q1456 362 1252.0 181.0Q1048 0 616 0H201Z" transform="translate(26.18 0) scale(0.016602 -0.016602)"/><path d="M403 1327V766H657Q798 766 875.0 839.0Q952 912 952 1047Q952 1181 875.0 1254.0Q798 1327 657 1327ZM201 1493H657Q908 1493 1036.5 1379.5Q1165 1266 1165 1047Q1165 826 1036.5 713.0Q908 600 657 600H403V0H201Z" transform="translate(52.36 0) scale(0.016602 -0.016602)"/><path d="M201 1493H502L883 477L1266 1493H1567V0H1370V1311L985 287H782L397 1311V0H201Z" transform="translate(72.86 0) scale(0.016602 -0.016602)"/><path d="M520 1493H690L170 -190H0Z" transform="translate(113.01 0) scale(0.016602 -0.016602)"/><path d="M403 1327V166H647Q956 166 1099.5 306.0Q1243 446 1243 748Q1243 1048 1099.5 1187.5Q956 1327 647 1327ZM201 1493H616Q1050 1493 1253.0 1312.5Q1456 1132 1456 748Q1456 362 1252.0 181.0Q1048 0 616 0H201Z" transform="translate(135.27 0) scale(0.016602 -0.016602)"/><path d="M403 1327V166H647Q956 166 1099.5 306.0Q1243 446 1243 748Q1243 1048 1099.5 1187.5Q956 1327 647 1327ZM201 1493H616Q1050 1493 1253.0 1312.5Q1456 1132 1456 748Q1456 362 1252.0 181.0Q1048 0 616 0H201Z" transform="translate(161.45 0) scale(0.016602 -0.016602)"/><path d="M201 1493H403V0H201Z" transform="translate(187.63 0) scale(0.016602 -0.016602)"/><path d="M201 1493H502L883 477L1266 1493H1567V0H1370V1311L985 287H782L397 1311V0H201Z" transform="translate(197.66 0) scale(0.016602 -0.016602)"/><path d="M498 803Q407 722 364.5 641.5Q322 561 322 473Q322 327 428.0 230.0Q534 133 694 133Q789 133 872.0 164.5Q955 196 1028 260ZM639 915 1147 395Q1206 484 1239.0 585.5Q1272 687 1278 801H1464Q1452 669 1400.0 540.0Q1348 411 1255 285L1534 0H1282L1139 147Q1035 58 921.0 14.5Q807 -29 676 -29Q435 -29 282.0 108.5Q129 246 129 461Q129 589 196.0 701.5Q263 814 397 913Q349 976 324.0 1038.5Q299 1101 299 1161Q299 1323 410.0 1421.5Q521 1520 705 1520Q788 1520 870.5 1502.0Q953 1484 1038 1448V1266Q951 1313 872.0 1337.5Q793 1362 725 1362Q620 1362 554.5 1306.5Q489 1251 489 1163Q489 1112 518.5 1060.5Q548 1009 639 915Z" transform="translate(237.80 0) scale(0.016602 -0.016602)"/><path d="M371 168V-426H186V1120H371V950Q429 1050 517.5 1098.5Q606 1147 729 1147Q933 1147 1060.5 985.0Q1188 823 1188 559Q1188 295 1060.5 133.0Q933 -29 729 -29Q606 -29 517.5 19.5Q429 68 371 168ZM997 559Q997 762 913.5 877.5Q830 993 684 993Q538 993 454.5 877.5Q371 762 371 559Q371 356 454.5 240.5Q538 125 684 125Q830 125 913.5 240.5Q997 356 997 559Z" transform="translate(275.12 0) scale(0.016602 -0.016602)"/><path d="M842 948Q811 966 774.5 974.5Q738 983 694 983Q538 983 454.5 881.5Q371 780 371 590V0H186V1120H371V946Q429 1048 522.0 1097.5Q615 1147 748 1147Q767 1147 790.0 1144.5Q813 1142 841 1137Z" transform="translate(296.70 0) scale(0.016602 -0.016602)"/><path d="M627 991Q479 991 393.0 875.5Q307 760 307 559Q307 358 392.5 242.5Q478 127 627 127Q774 127 860.0 243.0Q946 359 946 559Q946 758 860.0 874.5Q774 991 627 991ZM627 1147Q867 1147 1004.0 991.0Q1141 835 1141 559Q1141 284 1004.0 127.5Q867 -29 627 -29Q386 -29 249.5 127.5Q113 284 113 559Q113 835 249.5 991.0Q386 1147 627 1147Z" transform="translate(310.68 0) scale(0.016602 -0.016602)"/><path d="M999 1077V905Q921 948 842.5 969.5Q764 991 684 991Q505 991 406.0 877.5Q307 764 307 559Q307 354 406.0 240.5Q505 127 684 127Q764 127 842.5 148.5Q921 170 999 213V43Q922 7 839.5 -11.0Q757 -29 664 -29Q411 -29 262.0 130.0Q113 289 113 559Q113 833 263.5 990.0Q414 1147 676 1147Q761 1147 842.0 1129.5Q923 1112 999 1077Z" transform="translate(331.48 0) scale(0.016602 -0.016602)"/><path d="M1151 606V516H305Q317 326 419.5 226.5Q522 127 705 127Q811 127 910.5 153.0Q1010 179 1108 231V57Q1009 15 905.0 -7.0Q801 -29 694 -29Q426 -29 269.5 127.0Q113 283 113 549Q113 824 261.5 985.5Q410 1147 662 1147Q888 1147 1019.5 1001.5Q1151 856 1151 606ZM967 660Q965 811 882.5 901.0Q800 991 664 991Q510 991 417.5 904.0Q325 817 311 659Z" transform="translate(350.18 0) scale(0.016602 -0.016602)"/><path d="M907 1087V913Q829 953 745.0 973.0Q661 993 571 993Q434 993 365.5 951.0Q297 909 297 825Q297 761 346.0 724.5Q395 688 543 655L606 641Q802 599 884.5 522.5Q967 446 967 309Q967 153 843.5 62.0Q720 -29 504 -29Q414 -29 316.5 -11.5Q219 6 111 41V231Q213 178 312.0 151.5Q411 125 508 125Q638 125 708.0 169.5Q778 214 778 295Q778 370 727.5 410.0Q677 450 506 487L442 502Q271 538 195.0 612.5Q119 687 119 817Q119 975 231.0 1061.0Q343 1147 549 1147Q651 1147 741.0 1132.0Q831 1117 907 1087Z" transform="translate(371.09 0) scale(0.016602 -0.016602)"/><path d="M907 1087V913Q829 953 745.0 973.0Q661 993 571 993Q434 993 365.5 951.0Q297 909 297 825Q297 761 346.0 724.5Q395 688 543 655L606 641Q802 599 884.5 522.5Q967 446 967 309Q967 153 843.5 62.0Q720 -29 504 -29Q414 -29 316.5 -11.5Q219 6 111 41V231Q213 178 312.0 151.5Q411 125 508 125Q638 125 708.0 169.5Q778 214 778 295Q778 370 727.5 410.0Q677 450 506 487L442 502Q271 538 195.0 612.5Q119 687 119 817Q119 975 231.0 1061.0Q343 1147 549 1147Q651 1147 741.0 1132.0Q831 1117 907 1087Z" transform="translate(388.81 0) scale(0.016602 -0.016602)"/><path d="M193 1556H377V0H193Z" transform="translate(417.33 0) scale(0.016602 -0.016602)"/><path d="M1151 606V516H305Q317 326 419.5 226.5Q522 127 705 127Q811 127 910.5 153.0Q1010 179 1108 231V57Q1009 15 905.0 -7.0Q801 -29 694 -29Q426 -29 269.5 127.0Q113 283 113 549Q113 824 261.5 985.5Q410 1147 662 1147Q888 1147 1019.5 1001.5Q1151 856 1151 606ZM967 660Q965 811 882.5 901.0Q800 991 664 991Q510 991 417.5 904.0Q325 817 311 659Z" transform="translate(426.78 0) scale(0.016602 -0.016602)"/><path d="M1124 676V0H940V670Q940 829 878.0 908.0Q816 987 692 987Q543 987 457.0 892.0Q371 797 371 633V0H186V1120H371V946Q437 1047 526.5 1097.0Q616 1147 733 1147Q926 1147 1025.0 1027.5Q1124 908 1124 676Z" transform="translate(447.69 0) scale(0.016602 -0.016602)"/><path d="M930 573Q930 773 847.5 883.0Q765 993 616 993Q468 993 385.5 883.0Q303 773 303 573Q303 374 385.5 264.0Q468 154 616 154Q765 154 847.5 264.0Q930 374 930 573ZM1114 139Q1114 -147 987.0 -286.5Q860 -426 598 -426Q501 -426 415.0 -411.5Q329 -397 248 -367V-188Q329 -232 408.0 -253.0Q487 -274 569 -274Q750 -274 840.0 -179.5Q930 -85 930 106V197Q873 98 784.0 49.0Q695 0 571 0Q365 0 239.0 157.0Q113 314 113 573Q113 833 239.0 990.0Q365 1147 571 1147Q695 1147 784.0 1098.0Q873 1049 930 950V1120H1114Z" transform="translate(469.24 0) scale(0.016602 -0.016602)"/><path d="M375 1438V1120H754V977H375V369Q375 232 412.5 193.0Q450 154 565 154H754V0H565Q352 0 271.0 79.5Q190 159 190 369V977H55V1120H190V1438Z" transform="translate(490.83 0) scale(0.016602 -0.016602)"/><path d="M1124 676V0H940V670Q940 829 878.0 908.0Q816 987 692 987Q543 987 457.0 892.0Q371 797 371 633V0H186V1556H371V946Q437 1047 526.5 1097.0Q616 1147 733 1147Q926 1147 1025.0 1027.5Q1124 908 1124 676Z" transform="translate(504.16 0) scale(0.016602 -0.016602)"/></g><g fill="#a5a6aa" transform="translate(121 153)"><path d="M1104 123Q1023 48 921.5 9.5Q820 -29 702 -29Q418 -29 260.0 174.5Q102 378 102 745Q102 1111 262.0 1315.5Q422 1520 707 1520Q801 1520 887.0 1493.5Q973 1467 1053 1413V1206Q972 1283 887.0 1319.5Q802 1356 707 1356Q510 1356 411.5 1203.5Q313 1051 313 745Q313 434 408.5 284.5Q504 135 702 135Q769 135 819.5 150.5Q870 166 911 199V600H694V766H1104Z" transform="translate(0.00 0) scale(0.006348 -0.006348)"/><path d="M197 1493H1083V1323H399V881H1053V711H399V170H1102V0H197Z" transform="translate(8.43 0) scale(0.006348 -0.006348)"/><path d="M139 1493H395L899 264V1493H1094V0H838L334 1229V0H139Z" transform="translate(16.85 0) scale(0.006348 -0.006348)"/><path d="M197 1493H1083V1323H399V881H1053V711H399V170H1102V0H197Z" transform="translate(25.28 0) scale(0.006348 -0.006348)"/><path d="M760 705Q838 685 893.0 629.5Q948 574 1030 408L1233 0H1016L838 377Q761 538 699.5 584.5Q638 631 539 631H346V0H143V1493H559Q805 1493 936.0 1382.0Q1067 1271 1067 1061Q1067 913 986.5 819.5Q906 726 760 705ZM346 1327V797H567Q712 797 783.0 862.0Q854 927 854 1061Q854 1190 778.5 1258.5Q703 1327 559 1327Z" transform="translate(33.71 0) scale(0.006348 -0.006348)"/><path d="M616 1315 403 551H829ZM494 1493H739L1196 0H987L877 389H354L246 0H37Z" transform="translate(42.13 0) scale(0.006348 -0.006348)"/><path d="M47 1493H1186V1323H719V0H516V1323H47Z" transform="translate(50.56 0) scale(0.006348 -0.006348)"/><path d="M201 1493H1030V1323H717V170H1030V0H201V170H514V1323H201Z" transform="translate(58.99 0) scale(0.006348 -0.006348)"/><path d="M616 170 967 1493H1176L739 0H494L57 1493H266Z" transform="translate(67.41 0) scale(0.006348 -0.006348)"/><path d="M197 1493H1083V1323H399V881H1053V711H399V170H1102V0H197Z" transform="translate(75.84 0) scale(0.006348 -0.006348)"/><path d="M86 1493H356L614 733L874 1493H1145V0H958V1319L692 532H539L272 1319V0H86Z" transform="translate(92.69 0) scale(0.006348 -0.006348)"/><path d="M905 745Q905 1074 837.5 1215.0Q770 1356 616 1356Q463 1356 395.5 1215.0Q328 1074 328 745Q328 417 395.5 276.0Q463 135 616 135Q770 135 837.5 275.5Q905 416 905 745ZM1116 745Q1116 355 992.5 163.0Q869 -29 616 -29Q363 -29 240.0 162.0Q117 353 117 745Q117 1136 240.5 1328.0Q364 1520 616 1520Q869 1520 992.5 1328.0Q1116 1136 1116 745Z" transform="translate(101.12 0) scale(0.006348 -0.006348)"/><path d="M436 166Q691 166 792.0 291.5Q893 417 893 745Q893 1076 792.5 1201.5Q692 1327 436 1327H340V166ZM440 1493Q782 1493 944.0 1311.0Q1106 1129 1106 745Q1106 363 944.0 181.5Q782 0 440 0H137V1493Z" transform="translate(109.55 0) scale(0.006348 -0.006348)"/><path d="M197 1493H1083V1323H399V881H1053V711H399V170H1102V0H197Z" transform="translate(117.97 0) scale(0.006348 -0.006348)"/><path d="M215 1493H418V170H1139V0H215Z" transform="translate(126.40 0) scale(0.006348 -0.006348)"/><path d="M1012 1442V1237Q920 1296 827.5 1326.0Q735 1356 641 1356Q498 1356 415.0 1289.5Q332 1223 332 1110Q332 1011 386.5 959.0Q441 907 590 872L696 848Q906 799 1002.0 694.0Q1098 589 1098 408Q1098 195 966.0 83.0Q834 -29 582 -29Q477 -29 371.0 -6.5Q265 16 158 61V276Q273 203 375.5 169.0Q478 135 582 135Q735 135 820.0 203.5Q905 272 905 395Q905 507 846.5 566.0Q788 625 643 657L535 682Q327 729 233.0 824.0Q139 919 139 1079Q139 1279 273.5 1399.5Q408 1520 631 1520Q717 1520 812.0 1500.5Q907 1481 1012 1442Z" transform="translate(134.83 0) scale(0.006348 -0.006348)"/><path d="M889 1493H1079L293 -190H102Z" transform="translate(151.68 0) scale(0.006348 -0.006348)"/><path d="M760 705Q838 685 893.0 629.5Q948 574 1030 408L1233 0H1016L838 377Q761 538 699.5 584.5Q638 631 539 631H346V0H143V1493H559Q805 1493 936.0 1382.0Q1067 1271 1067 1061Q1067 913 986.5 819.5Q906 726 760 705ZM346 1327V797H567Q712 797 783.0 862.0Q854 927 854 1061Q854 1190 778.5 1258.5Q703 1327 559 1327Z" transform="translate(168.53 0) scale(0.006348 -0.006348)"/><path d="M197 1493H1083V1323H399V881H1053V711H399V170H1102V0H197Z" transform="translate(176.96 0) scale(0.006348 -0.006348)"/><path d="M399 1327V766H633Q773 766 851.5 840.0Q930 914 930 1047Q930 1180 852.0 1253.5Q774 1327 633 1327ZM197 1493H633Q883 1493 1012.0 1379.5Q1141 1266 1141 1047Q1141 826 1012.5 713.0Q884 600 633 600H399V0H197Z" transform="translate(185.39 0) scale(0.006348 -0.006348)"/><path d="M760 705Q838 685 893.0 629.5Q948 574 1030 408L1233 0H1016L838 377Q761 538 699.5 584.5Q638 631 539 631H346V0H143V1493H559Q805 1493 936.0 1382.0Q1067 1271 1067 1061Q1067 913 986.5 819.5Q906 726 760 705ZM346 1327V797H567Q712 797 783.0 862.0Q854 927 854 1061Q854 1190 778.5 1258.5Q703 1327 559 1327Z" transform="translate(193.81 0) scale(0.006348 -0.006348)"/><path d="M905 745Q905 1074 837.5 1215.0Q770 1356 616 1356Q463 1356 395.5 1215.0Q328 1074 328 745Q328 417 395.5 276.0Q463 135 616 135Q770 135 837.5 275.5Q905 416 905 745ZM1116 745Q1116 355 992.5 163.0Q869 -29 616 -29Q363 -29 240.0 162.0Q117 353 117 745Q117 1136 240.5 1328.0Q364 1520 616 1520Q869 1520 992.5 1328.0Q1116 1136 1116 745Z" transform="translate(202.24 0) scale(0.006348 -0.006348)"/><path d="M436 166Q691 166 792.0 291.5Q893 417 893 745Q893 1076 792.5 1201.5Q692 1327 436 1327H340V166ZM440 1493Q782 1493 944.0 1311.0Q1106 1129 1106 745Q1106 363 944.0 181.5Q782 0 440 0H137V1493Z" transform="translate(210.67 0) scale(0.006348 -0.006348)"/><path d="M147 573V1493H350V481Q350 372 356.0 325.5Q362 279 377 254Q409 195 469.5 165.0Q530 135 616 135Q703 135 763.0 165.0Q823 195 856 254Q871 279 877.0 325.0Q883 371 883 479V1493H1085V573Q1085 344 1056.5 247.5Q1028 151 958 88Q892 29 807.0 0.0Q722 -29 616 -29Q511 -29 426.0 0.0Q341 29 274 88Q205 150 176.0 248.5Q147 347 147 573Z" transform="translate(219.09 0) scale(0.006348 -0.006348)"/><path d="M1073 53Q996 12 915.0 -8.5Q834 -29 743 -29Q456 -29 297.5 174.0Q139 377 139 745Q139 1111 298.5 1315.5Q458 1520 743 1520Q834 1520 915.0 1499.5Q996 1479 1073 1438V1231Q999 1292 914.0 1324.0Q829 1356 743 1356Q546 1356 448.0 1204.0Q350 1052 350 745Q350 439 448.0 287.0Q546 135 743 135Q831 135 915.5 167.0Q1000 199 1073 260Z" transform="translate(227.52 0) scale(0.006348 -0.006348)"/><path d="M201 1493H1030V1323H717V170H1030V0H201V170H514V1323H201Z" transform="translate(235.95 0) scale(0.006348 -0.006348)"/><path d="M369 713V166H608Q784 166 859.0 227.5Q934 289 934 430Q934 576 855.0 644.5Q776 713 608 713ZM369 1327V877H604Q750 877 815.5 933.0Q881 989 881 1114Q881 1227 816.5 1277.0Q752 1327 604 1327ZM166 1493H608Q837 1493 961.0 1394.0Q1085 1295 1085 1114Q1085 977 1019.5 898.0Q954 819 823 799Q970 777 1053.5 673.5Q1137 570 1137 410Q1137 207 1004.0 103.5Q871 0 608 0H166Z" transform="translate(244.37 0) scale(0.006348 -0.006348)"/><path d="M215 1493H418V170H1139V0H215Z" transform="translate(252.80 0) scale(0.006348 -0.006348)"/><path d="M197 1493H1083V1323H399V881H1053V711H399V170H1102V0H197Z" transform="translate(261.23 0) scale(0.006348 -0.006348)"/><path d="M197 1493H1083V1323H399V881H1053V711H399V170H1102V0H197Z" transform="translate(278.08 0) scale(0.006348 -0.006348)"/><path d="M86 1493H303L631 930L965 1493H1182L735 791L1214 0H997L631 643L236 0H18L518 791Z" transform="translate(286.51 0) scale(0.006348 -0.006348)"/><path d="M399 1327V766H633Q773 766 851.5 840.0Q930 914 930 1047Q930 1180 852.0 1253.5Q774 1327 633 1327ZM197 1493H633Q883 1493 1012.0 1379.5Q1141 1266 1141 1047Q1141 826 1012.5 713.0Q884 600 633 600H399V0H197Z" transform="translate(294.93 0) scale(0.006348 -0.006348)"/><path d="M197 1493H1083V1323H399V881H1053V711H399V170H1102V0H197Z" transform="translate(303.36 0) scale(0.006348 -0.006348)"/><path d="M760 705Q838 685 893.0 629.5Q948 574 1030 408L1233 0H1016L838 377Q761 538 699.5 584.5Q638 631 539 631H346V0H143V1493H559Q805 1493 936.0 1382.0Q1067 1271 1067 1061Q1067 913 986.5 819.5Q906 726 760 705ZM346 1327V797H567Q712 797 783.0 862.0Q854 927 854 1061Q854 1190 778.5 1258.5Q703 1327 559 1327Z" transform="translate(311.79 0) scale(0.006348 -0.006348)"/><path d="M201 1493H1030V1323H717V170H1030V0H201V170H514V1323H201Z" transform="translate(320.21 0) scale(0.006348 -0.006348)"/><path d="M86 1493H356L614 733L874 1493H1145V0H958V1319L692 532H539L272 1319V0H86Z" transform="translate(328.64 0) scale(0.006348 -0.006348)"/><path d="M197 1493H1083V1323H399V881H1053V711H399V170H1102V0H197Z" transform="translate(337.07 0) scale(0.006348 -0.006348)"/><path d="M139 1493H395L899 264V1493H1094V0H838L334 1229V0H139Z" transform="translate(345.49 0) scale(0.006348 -0.006348)"/><path d="M47 1493H1186V1323H719V0H516V1323H47Z" transform="translate(353.92 0) scale(0.006348 -0.006348)"/><path d="M1012 1442V1237Q920 1296 827.5 1326.0Q735 1356 641 1356Q498 1356 415.0 1289.5Q332 1223 332 1110Q332 1011 386.5 959.0Q441 907 590 872L696 848Q906 799 1002.0 694.0Q1098 589 1098 408Q1098 195 966.0 83.0Q834 -29 582 -29Q477 -29 371.0 -6.5Q265 16 158 61V276Q273 203 375.5 169.0Q478 135 582 135Q735 135 820.0 203.5Q905 272 905 395Q905 507 846.5 566.0Q788 625 643 657L535 682Q327 729 233.0 824.0Q139 919 139 1079Q139 1279 273.5 1399.5Q408 1520 631 1520Q717 1520 812.0 1500.5Q907 1481 1012 1442Z" transform="translate(362.35 0) scale(0.006348 -0.006348)"/></g><ellipse cx="1040" cy="96" rx="92.39999999999999" ry="40.32" transform="rotate(0 1040 96)" fill="none" stroke="#747983" stroke-width="1.1"/><ellipse cx="1040" cy="96" rx="87.44999999999999" ry="38.16" transform="rotate(17 1040 96)" fill="none" stroke="#747983" stroke-width="1.1"/><ellipse cx="1040" cy="96" rx="82.5" ry="36.0" transform="rotate(34 1040 96)" fill="none" stroke="#747983" stroke-width="1.1"/><ellipse cx="1040" cy="96" rx="77.55" ry="33.839999999999996" transform="rotate(51 1040 96)" fill="none" stroke="#747983" stroke-width="1.1"/><ellipse cx="1040" cy="96" rx="72.6" ry="31.68" transform="rotate(68 1040 96)" fill="none" stroke="#747983" stroke-width="1.1"/><ellipse cx="1040" cy="96" rx="67.64999999999999" ry="29.52" transform="rotate(85 1040 96)" fill="none" stroke="#747983" stroke-width="1.1"/><ellipse cx="1040" cy="96" rx="62.699999999999996" ry="27.36" transform="rotate(102 1040 96)" fill="none" stroke="#747983" stroke-width="1.1"/><ellipse cx="1040" cy="96" rx="57.75" ry="25.2" transform="rotate(119 1040 96)" fill="none" stroke="#ff865f" stroke-width="1.1"/><ellipse cx="1040" cy="96" rx="52.8" ry="23.04" transform="rotate(136 1040 96)" fill="none" stroke="#747983" stroke-width="1.1"/><ellipse cx="1040" cy="96" rx="47.849999999999994" ry="20.88" transform="rotate(153 1040 96)" fill="none" stroke="#747983" stroke-width="1.1"/><ellipse cx="1040" cy="96" rx="42.9" ry="18.72" transform="rotate(170 1040 96)" fill="none" stroke="#747983" stroke-width="1.1"/><path d="M1154 22L1173 22" stroke="#ecebe6" stroke-width="1" fill="none"/><path d="M1173 22L1173 41" stroke="#ecebe6" stroke-width="1" fill="none"/><path d="M1154 41L1173 22" stroke="#ecebe6" stroke-width="1" fill="none"/><rect x=".5" y=".5" width="1199" height="189" fill="none" stroke="#303238"/></svg>
